<svg id="visual" viewBox="0 0 960 540" width="960" height="540" xmlns="http://www.w3.org/2000/svg" xmlns:xlink="http://www.w3.org/1999/xlink" version="1.1"><path d="M0 17L64 17L64 6L128 6L128 33L192 33L192 33L256 33L256 50L320 50L320 39L384 39L384 33L448 33L448 55L512 55L512 23L576 23L576 12L640 12L640 44L704 44L704 17L768 17L768 33L832 33L832 6L896 6L896 6L960 6L960 12L960 0L960 0L896 0L896 0L832 0L832 0L768 0L768 0L704 0L704 0L640 0L640 0L576 0L576 0L512 0L512 0L448 0L448 0L384 0L384 0L320 0L320 0L256 0L256 0L192 0L192 0L128 0L128 0L64 0L64 0L0 0Z" fill="#7bdeff"></path><path d="M0 33L64 33L64 23L128 23L128 66L192 66L192 44L256 44L256 82L320 82L320 71L384 71L384 71L448 71L448 82L512 82L512 55L576 55L576 60L640 60L640 82L704 82L704 44L768 44L768 71L832 71L832 23L896 23L896 39L960 39L960 55L960 10L960 4L896 4L896 4L832 4L832 31L768 31L768 15L704 15L704 42L640 42L640 10L576 10L576 21L512 21L512 53L448 53L448 31L384 31L384 37L320 37L320 48L256 48L256 31L192 31L192 31L128 31L128 4L64 4L64 15L0 15Z" fill="#65d5ff"></path><path d="M0 104L64 104L64 77L128 77L128 141L192 141L192 104L256 104L256 136L320 136L320 93L384 93L384 114L448 114L448 141L512 141L512 125L576 125L576 120L640 120L640 120L704 120L704 109L768 109L768 87L832 87L832 98L896 98L896 104L960 104L960 109L960 53L960 37L896 37L896 21L832 21L832 69L768 69L768 42L704 42L704 80L640 80L640 58L576 58L576 53L512 53L512 80L448 80L448 69L384 69L384 69L320 69L320 80L256 80L256 42L192 42L192 64L128 64L128 21L64 21L64 31L0 31Z" fill="#4fcbff"></path><path d="M0 109L64 109L64 104L128 104L128 179L192 179L192 114L256 114L256 136L320 136L320 136L384 136L384 120L448 120L448 163L512 163L512 168L576 168L576 158L640 158L640 120L704 120L704 147L768 147L768 125L832 125L832 120L896 120L896 104L960 104L960 125L960 107L960 102L896 102L896 96L832 96L832 85L768 85L768 107L704 107L704 118L640 118L640 118L576 118L576 123L512 123L512 139L448 139L448 112L384 112L384 91L320 91L320 134L256 134L256 102L192 102L192 139L128 139L128 75L64 75L64 102L0 102Z" fill="#38c1ff"></path><path d="M0 179L64 179L64 185L128 185L128 201L192 201L192 201L256 201L256 190L320 190L320 222L384 222L384 190L448 190L448 195L512 195L512 249L576 249L576 217L640 217L640 163L704 163L704 174L768 174L768 141L832 141L832 141L896 141L896 158L960 158L960 168L960 123L960 102L896 102L896 118L832 118L832 123L768 123L768 145L704 145L704 118L640 118L640 156L576 156L576 166L512 166L512 161L448 161L448 118L384 118L384 134L320 134L320 134L256 134L256 112L192 112L192 177L128 177L128 102L64 102L64 107L0 107Z" fill="#1fb6ff"></path><path d="M0 201L64 201L64 228L128 228L128 212L192 212L192 260L256 260L256 233L320 233L320 233L384 233L384 239L448 239L448 239L512 239L512 298L576 298L576 260L640 260L640 206L704 206L704 201L768 201L768 190L832 190L832 185L896 185L896 206L960 206L960 228L960 166L960 156L896 156L896 139L832 139L832 139L768 139L768 172L704 172L704 161L640 161L640 215L576 215L576 247L512 247L512 193L448 193L448 188L384 188L384 220L320 220L320 188L256 188L256 199L192 199L192 199L128 199L128 183L64 183L64 177L0 177Z" fill="#00abff"></path><path d="M0 239L64 239L64 271L128 271L128 239L192 239L192 298L256 298L256 266L320 266L320 260L384 260L384 266L448 266L448 266L512 266L512 325L576 325L576 276L640 276L640 244L704 244L704 228L768 228L768 233L832 233L832 206L896 206L896 228L960 228L960 233L960 226L960 204L896 204L896 183L832 183L832 188L768 188L768 199L704 199L704 204L640 204L640 258L576 258L576 296L512 296L512 237L448 237L448 237L384 237L384 231L320 231L320 231L256 231L256 258L192 258L192 210L128 210L128 226L64 226L64 199L0 199Z" fill="#009fff"></path><path d="M0 368L64 368L64 314L128 314L128 428L192 428L192 411L256 411L256 384L320 384L320 298L384 298L384 433L448 433L448 455L512 455L512 368L576 368L576 357L640 357L640 287L704 287L704 379L768 379L768 357L832 357L832 298L896 298L896 266L960 266L960 401L960 231L960 226L896 226L896 204L832 204L832 231L768 231L768 226L704 226L704 242L640 242L640 274L576 274L576 323L512 323L512 264L448 264L448 264L384 264L384 258L320 258L320 264L256 264L256 296L192 296L192 237L128 237L128 269L64 269L64 237L0 237Z" fill="#0093ff"></path><path d="M0 401L64 401L64 449L128 449L128 482L192 482L192 498L256 498L256 422L320 422L320 455L384 455L384 514L448 514L448 476L512 476L512 471L576 471L576 411L640 411L640 417L704 417L704 465L768 465L768 411L832 411L832 395L896 395L896 411L960 411L960 460L960 399L960 264L896 264L896 296L832 296L832 355L768 355L768 377L704 377L704 285L640 285L640 355L576 355L576 366L512 366L512 453L448 453L448 431L384 431L384 296L320 296L320 382L256 382L256 409L192 409L192 426L128 426L128 312L64 312L64 366L0 366Z" fill="#0086ff"></path><path d="M0 438L64 438L64 492L128 492L128 492L192 492L192 509L256 509L256 444L320 444L320 487L384 487L384 525L448 525L448 509L512 509L512 476L576 476L576 460L640 460L640 455L704 455L704 509L768 509L768 465L832 465L832 401L896 401L896 428L960 428L960 514L960 458L960 409L896 409L896 393L832 393L832 409L768 409L768 463L704 463L704 415L640 415L640 409L576 409L576 469L512 469L512 474L448 474L448 512L384 512L384 453L320 453L320 420L256 420L256 496L192 496L192 480L128 480L128 447L64 447L64 399L0 399Z" fill="#0077ff"></path><path d="M0 541L64 541L64 541L128 541L128 541L192 541L192 541L256 541L256 541L320 541L320 541L384 541L384 541L448 541L448 541L512 541L512 541L576 541L576 541L640 541L640 541L704 541L704 541L768 541L768 541L832 541L832 541L896 541L896 541L960 541L960 541L960 512L960 426L896 426L896 399L832 399L832 463L768 463L768 507L704 507L704 453L640 453L640 458L576 458L576 474L512 474L512 507L448 507L448 523L384 523L384 485L320 485L320 442L256 442L256 507L192 507L192 490L128 490L128 490L64 490L64 436L0 436Z" fill="#0067ff"></path></svg>