<svg id="visual" viewBox="0 0 900 450" width="900" height="450" xmlns="http://www.w3.org/2000/svg" xmlns:xlink="http://www.w3.org/1999/xlink" version="1.1"><path d="M0 96L129 145L257 114L386 114L514 114L643 118L771 105L900 64L900 0L771 0L643 0L514 0L386 0L257 0L129 0L0 0Z" fill="#0067ff"></path><path d="M0 132L129 199L257 222L386 159L514 217L643 159L771 145L900 118L900 62L771 103L643 116L514 112L386 112L257 112L129 143L0 94Z" fill="#8b8afe"></path><path d="M0 271L129 294L257 334L386 253L514 316L643 348L771 375L900 235L900 116L771 143L643 157L514 215L386 157L257 220L129 197L0 130Z" fill="#c2b2fe"></path><path d="M0 451L129 451L257 451L386 451L514 451L643 451L771 451L900 451L900 233L771 373L643 346L514 314L386 251L257 332L129 292L0 269Z" fill="#eadeff"></path></svg>